<mxfile host="Electron" modified="2023-11-07T10:16:16.570Z" agent="Mozilla/5.0 (Macintosh; Intel Mac OS X 10_15_7) AppleWebKit/537.36 (KHTML, like Gecko) draw.io/22.0.3 Chrome/114.0.5735.289 Electron/25.8.4 Safari/537.36" etag="nN2seXsc0vTcLDXbcq6e" version="22.0.3" type="device">
  <diagram id="C5RBs43oDa-KdzZeNtuy" name="Page-1">
    <mxGraphModel dx="2154" dy="1835" grid="1" gridSize="10" guides="1" tooltips="1" connect="0" arrows="0" fold="1" page="1" pageScale="1" pageWidth="827" pageHeight="1169" background="#296a54" math="0" shadow="0">
      <root>
        <mxCell id="WIyWlLk6GJQsqaUBKTNV-0" />
        <mxCell id="WIyWlLk6GJQsqaUBKTNV-1" parent="WIyWlLk6GJQsqaUBKTNV-0" />
        <mxCell id="UN8iPi8M0M4lKCketsCk-8" value="" style="rounded=1;whiteSpace=wrap;html=1;fontSize=12;glass=0;strokeWidth=1;shadow=0;labelBackgroundColor=none;fillColor=#c08e62;strokeColor=#d19a7a;fontColor=#FEFAE0;" parent="WIyWlLk6GJQsqaUBKTNV-1" vertex="1">
          <mxGeometry x="-103" y="-270" width="595" height="205" as="geometry" />
        </mxCell>
        <mxCell id="WIyWlLk6GJQsqaUBKTNV-3" value="Фотоловушка 2" style="rounded=1;whiteSpace=wrap;html=1;fontSize=12;glass=0;strokeWidth=1;shadow=0;labelBackgroundColor=none;fillColor=#BC6C25;strokeColor=#DDA15E;fontColor=#FEFAE0;" parent="WIyWlLk6GJQsqaUBKTNV-1" vertex="1">
          <mxGeometry x="-233" y="-360" width="120" height="40" as="geometry" />
        </mxCell>
        <mxCell id="UN8iPi8M0M4lKCketsCk-0" value="Фотоловушка 3" style="rounded=1;whiteSpace=wrap;html=1;fontSize=12;glass=0;strokeWidth=1;shadow=0;labelBackgroundColor=none;fillColor=#BC6C25;strokeColor=#DDA15E;fontColor=#FEFAE0;" parent="WIyWlLk6GJQsqaUBKTNV-1" vertex="1">
          <mxGeometry x="-233" y="-320" width="120" height="40" as="geometry" />
        </mxCell>
        <mxCell id="UN8iPi8M0M4lKCketsCk-1" value="Фотоловушка 1" style="rounded=1;whiteSpace=wrap;html=1;fontSize=12;glass=0;strokeWidth=1;shadow=0;labelBackgroundColor=none;fillColor=#BC6C25;strokeColor=#DDA15E;fontColor=#FEFAE0;" parent="WIyWlLk6GJQsqaUBKTNV-1" vertex="1">
          <mxGeometry x="-233" y="-400" width="120" height="40" as="geometry" />
        </mxCell>
        <mxCell id="UN8iPi8M0M4lKCketsCk-2" value="Работник заповедника" style="rounded=1;whiteSpace=wrap;html=1;fontSize=12;glass=0;strokeWidth=1;shadow=0;labelBackgroundColor=none;fillColor=#BC6C25;strokeColor=#DDA15E;fontColor=#FEFAE0;" parent="WIyWlLk6GJQsqaUBKTNV-1" vertex="1">
          <mxGeometry x="-243" y="-220" width="120" height="40" as="geometry" />
        </mxCell>
        <mxCell id="UN8iPi8M0M4lKCketsCk-5" value="SD card" style="text;html=1;strokeColor=none;fillColor=#423e47;align=center;verticalAlign=middle;whiteSpace=wrap;rounded=0;labelBackgroundColor=none;fontColor=#FEFAE0;" parent="WIyWlLk6GJQsqaUBKTNV-1" vertex="1">
          <mxGeometry x="-253" y="-270" width="60" height="30" as="geometry" />
        </mxCell>
        <mxCell id="UN8iPi8M0M4lKCketsCk-7" value="Ручная загрузка фотографий через интерфейс программы на ПК" style="text;html=1;strokeColor=none;fillColor=#423e47;align=center;verticalAlign=middle;whiteSpace=wrap;rounded=0;labelBackgroundColor=none;fontColor=#FEFAE0;gradientColor=none;" parent="WIyWlLk6GJQsqaUBKTNV-1" vertex="1">
          <mxGeometry x="-233" y="-170" width="100" height="90" as="geometry" />
        </mxCell>
        <mxCell id="UN8iPi8M0M4lKCketsCk-23" value="ПК работника" style="rounded=1;whiteSpace=wrap;html=1;fontSize=12;glass=0;strokeWidth=1;shadow=0;labelBackgroundColor=none;fillColor=#BC6C25;strokeColor=#DDA15E;fontColor=#FEFAE0;" parent="WIyWlLk6GJQsqaUBKTNV-1" vertex="1">
          <mxGeometry x="289.5" y="-60" width="135" height="60" as="geometry" />
        </mxCell>
        <mxCell id="UN8iPi8M0M4lKCketsCk-26" value="&lt;span style=&quot;color: rgb(254, 250, 224); font-family: Helvetica; font-size: 12px; font-style: normal; font-variant-ligatures: normal; font-variant-caps: normal; font-weight: 400; letter-spacing: normal; orphans: 2; text-align: center; text-indent: 0px; text-transform: none; widows: 2; word-spacing: 0px; -webkit-text-stroke-width: 0px; background-color: rgb(251, 251, 251); text-decoration-thickness: initial; text-decoration-style: initial; text-decoration-color: initial; float: none; display: inline !important;&quot;&gt;Волки&lt;/span&gt;" style="rounded=0;whiteSpace=wrap;html=1;labelBackgroundColor=none;fillColor=#BC6C25;strokeColor=#DDA15E;fontColor=#FEFAE0;" parent="WIyWlLk6GJQsqaUBKTNV-1" vertex="1">
          <mxGeometry x="507" y="-320" width="320" height="320" as="geometry" />
        </mxCell>
        <mxCell id="UN8iPi8M0M4lKCketsCk-28" value="" style="endArrow=none;dashed=1;html=1;dashPattern=1 3;strokeWidth=2;rounded=0;exitX=0;exitY=0.25;exitDx=0;exitDy=0;entryX=1;entryY=0.25;entryDx=0;entryDy=0;labelBackgroundColor=none;strokeColor=#DDA15E;fontColor=default;" parent="WIyWlLk6GJQsqaUBKTNV-1" source="UN8iPi8M0M4lKCketsCk-26" target="UN8iPi8M0M4lKCketsCk-26" edge="1">
          <mxGeometry width="50" height="50" relative="1" as="geometry">
            <mxPoint x="587" y="-230" as="sourcePoint" />
            <mxPoint x="637" y="-280" as="targetPoint" />
          </mxGeometry>
        </mxCell>
        <mxCell id="UN8iPi8M0M4lKCketsCk-31" value="" style="endArrow=none;dashed=1;html=1;dashPattern=1 3;strokeWidth=2;rounded=0;exitX=0;exitY=0.25;exitDx=0;exitDy=0;entryX=1;entryY=0.25;entryDx=0;entryDy=0;labelBackgroundColor=none;strokeColor=#DDA15E;fontColor=default;" parent="WIyWlLk6GJQsqaUBKTNV-1" edge="1">
          <mxGeometry width="50" height="50" relative="1" as="geometry">
            <mxPoint x="507" y="-160.48000000000002" as="sourcePoint" />
            <mxPoint x="827" y="-160.48000000000002" as="targetPoint" />
          </mxGeometry>
        </mxCell>
        <mxCell id="UN8iPi8M0M4lKCketsCk-33" value="" style="endArrow=none;dashed=1;html=1;dashPattern=1 3;strokeWidth=2;rounded=0;exitX=0;exitY=0.25;exitDx=0;exitDy=0;entryX=1;entryY=0.25;entryDx=0;entryDy=0;labelBackgroundColor=none;strokeColor=#DDA15E;fontColor=default;" parent="WIyWlLk6GJQsqaUBKTNV-1" edge="1">
          <mxGeometry width="50" height="50" relative="1" as="geometry">
            <mxPoint x="507" y="-80" as="sourcePoint" />
            <mxPoint x="827" y="-80" as="targetPoint" />
          </mxGeometry>
        </mxCell>
        <mxCell id="UN8iPi8M0M4lKCketsCk-35" value="" style="endArrow=none;dashed=1;html=1;dashPattern=1 3;strokeWidth=2;rounded=0;exitX=0.25;exitY=0;exitDx=0;exitDy=0;entryX=0.25;entryY=1;entryDx=0;entryDy=0;labelBackgroundColor=none;strokeColor=#DDA15E;fontColor=default;" parent="WIyWlLk6GJQsqaUBKTNV-1" source="UN8iPi8M0M4lKCketsCk-26" target="UN8iPi8M0M4lKCketsCk-26" edge="1">
          <mxGeometry width="50" height="50" relative="1" as="geometry">
            <mxPoint x="517" y="-230" as="sourcePoint" />
            <mxPoint x="837" y="-230" as="targetPoint" />
          </mxGeometry>
        </mxCell>
        <mxCell id="UN8iPi8M0M4lKCketsCk-36" value="" style="endArrow=none;dashed=1;html=1;dashPattern=1 3;strokeWidth=2;rounded=0;exitX=0.25;exitY=0;exitDx=0;exitDy=0;entryX=0.25;entryY=1;entryDx=0;entryDy=0;labelBackgroundColor=none;strokeColor=#DDA15E;fontColor=default;" parent="WIyWlLk6GJQsqaUBKTNV-1" edge="1">
          <mxGeometry width="50" height="50" relative="1" as="geometry">
            <mxPoint x="667" y="-320" as="sourcePoint" />
            <mxPoint x="667" as="targetPoint" />
          </mxGeometry>
        </mxCell>
        <mxCell id="UN8iPi8M0M4lKCketsCk-37" value="" style="endArrow=none;dashed=1;html=1;dashPattern=1 3;strokeWidth=2;rounded=0;exitX=0.25;exitY=0;exitDx=0;exitDy=0;entryX=0.25;entryY=1;entryDx=0;entryDy=0;labelBackgroundColor=none;strokeColor=#DDA15E;fontColor=default;" parent="WIyWlLk6GJQsqaUBKTNV-1" edge="1">
          <mxGeometry width="50" height="50" relative="1" as="geometry">
            <mxPoint x="747" y="-320" as="sourcePoint" />
            <mxPoint x="747" as="targetPoint" />
          </mxGeometry>
        </mxCell>
        <mxCell id="UN8iPi8M0M4lKCketsCk-52" value="" style="ellipse;whiteSpace=wrap;html=1;fillColor=#e3c800;fontColor=#000000;strokeColor=#B09500;labelBackgroundColor=none;" parent="WIyWlLk6GJQsqaUBKTNV-1" vertex="1">
          <mxGeometry x="507" y="-295" width="20" height="20" as="geometry" />
        </mxCell>
        <mxCell id="UN8iPi8M0M4lKCketsCk-54" value="" style="ellipse;whiteSpace=wrap;html=1;fillColor=#e3c800;fontColor=#000000;strokeColor=#B09500;labelBackgroundColor=none;" parent="WIyWlLk6GJQsqaUBKTNV-1" vertex="1">
          <mxGeometry x="592" y="-295" width="20" height="20" as="geometry" />
        </mxCell>
        <mxCell id="UN8iPi8M0M4lKCketsCk-55" value="" style="ellipse;whiteSpace=wrap;html=1;fillColor=#e3c800;fontColor=#000000;strokeColor=#B09500;labelBackgroundColor=none;" parent="WIyWlLk6GJQsqaUBKTNV-1" vertex="1">
          <mxGeometry x="672" y="-295" width="20" height="20" as="geometry" />
        </mxCell>
        <mxCell id="UN8iPi8M0M4lKCketsCk-56" value="&lt;b&gt;&lt;font face=&quot;Times New Roman&quot;&gt;1&lt;/font&gt;&lt;/b&gt;" style="text;html=1;strokeColor=none;fillColor=none;align=center;verticalAlign=middle;whiteSpace=wrap;rounded=0;labelBackgroundColor=none;fontColor=#FEFAE0;" parent="WIyWlLk6GJQsqaUBKTNV-1" vertex="1">
          <mxGeometry x="512" y="-295" width="10" height="20" as="geometry" />
        </mxCell>
        <mxCell id="UN8iPi8M0M4lKCketsCk-58" value="&lt;b&gt;&lt;font face=&quot;Times New Roman&quot;&gt;2&lt;/font&gt;&lt;/b&gt;" style="text;html=1;strokeColor=none;fillColor=none;align=center;verticalAlign=middle;whiteSpace=wrap;rounded=0;labelBackgroundColor=none;fontColor=#FEFAE0;" parent="WIyWlLk6GJQsqaUBKTNV-1" vertex="1">
          <mxGeometry x="597" y="-295" width="10" height="20" as="geometry" />
        </mxCell>
        <mxCell id="UN8iPi8M0M4lKCketsCk-59" value="&lt;b&gt;&lt;font face=&quot;Times New Roman&quot;&gt;3&lt;/font&gt;&lt;/b&gt;" style="text;html=1;strokeColor=none;fillColor=none;align=center;verticalAlign=middle;whiteSpace=wrap;rounded=0;labelBackgroundColor=none;fontColor=#FEFAE0;" parent="WIyWlLk6GJQsqaUBKTNV-1" vertex="1">
          <mxGeometry x="677" y="-295" width="10" height="20" as="geometry" />
        </mxCell>
        <mxCell id="UN8iPi8M0M4lKCketsCk-64" value="Медведи" style="text;html=1;strokeColor=none;fillColor=none;align=center;verticalAlign=middle;whiteSpace=wrap;rounded=0;labelBackgroundColor=none;fontColor=#FEFAE0;" parent="WIyWlLk6GJQsqaUBKTNV-1" vertex="1">
          <mxGeometry x="527" y="-300" width="60" height="30" as="geometry" />
        </mxCell>
        <mxCell id="UN8iPi8M0M4lKCketsCk-65" value="Волки" style="text;html=1;strokeColor=none;fillColor=none;align=center;verticalAlign=middle;whiteSpace=wrap;rounded=0;labelBackgroundColor=none;fontColor=#FEFAE0;" parent="WIyWlLk6GJQsqaUBKTNV-1" vertex="1">
          <mxGeometry x="607" y="-300" width="60" height="30" as="geometry" />
        </mxCell>
        <mxCell id="UN8iPi8M0M4lKCketsCk-66" value="Лоси" style="text;html=1;strokeColor=none;fillColor=none;align=center;verticalAlign=middle;whiteSpace=wrap;rounded=0;labelBackgroundColor=none;fontColor=#FEFAE0;" parent="WIyWlLk6GJQsqaUBKTNV-1" vertex="1">
          <mxGeometry x="682" y="-300" width="60" height="30" as="geometry" />
        </mxCell>
        <mxCell id="E1cWPZ0sb_W8jcI9UWx0-7" value="Сервер" style="text;html=1;strokeColor=none;fillColor=none;align=center;verticalAlign=middle;whiteSpace=wrap;rounded=0;" parent="WIyWlLk6GJQsqaUBKTNV-1" vertex="1">
          <mxGeometry x="-83" y="-260" width="60" height="30" as="geometry" />
        </mxCell>
        <mxCell id="E1cWPZ0sb_W8jcI9UWx0-8" value="YOLOv8" style="rounded=1;whiteSpace=wrap;html=1;fontSize=12;glass=0;strokeWidth=1;shadow=0;labelBackgroundColor=none;fillColor=#BC6C25;strokeColor=#DDA15E;fontColor=#FEFAE0;" parent="WIyWlLk6GJQsqaUBKTNV-1" vertex="1">
          <mxGeometry x="-38" y="-220" width="125" height="40" as="geometry" />
        </mxCell>
        <mxCell id="E1cWPZ0sb_W8jcI9UWx0-9" value="Классификация каждого объекта" style="rounded=1;whiteSpace=wrap;html=1;fontSize=12;glass=0;strokeWidth=1;shadow=0;labelBackgroundColor=none;fillColor=#BC6C25;strokeColor=#DDA15E;fontColor=#FEFAE0;" parent="WIyWlLk6GJQsqaUBKTNV-1" vertex="1">
          <mxGeometry x="137" y="-220" width="120" height="40" as="geometry" />
        </mxCell>
        <mxCell id="E1cWPZ0sb_W8jcI9UWx0-11" value="" style="rounded=0;html=1;jettySize=auto;orthogonalLoop=1;fontSize=11;endArrow=block;endFill=0;endSize=8;strokeWidth=1;shadow=0;labelBackgroundColor=none;edgeStyle=orthogonalEdgeStyle;entryX=0;entryY=0.5;entryDx=0;entryDy=0;strokeColor=#000000;fontColor=default;exitX=1;exitY=0.5;exitDx=0;exitDy=0;" parent="WIyWlLk6GJQsqaUBKTNV-1" source="E1cWPZ0sb_W8jcI9UWx0-8" target="E1cWPZ0sb_W8jcI9UWx0-9" edge="1">
          <mxGeometry relative="1" as="geometry">
            <mxPoint x="2" y="-140.00000000000003" as="sourcePoint" />
            <mxPoint x="232" y="-139.52" as="targetPoint" />
          </mxGeometry>
        </mxCell>
        <mxCell id="E1cWPZ0sb_W8jcI9UWx0-12" value="Сохранение информации о каждом нужном объекте в бд" style="rounded=1;whiteSpace=wrap;html=1;fontSize=12;glass=0;strokeWidth=1;shadow=0;labelBackgroundColor=none;fillColor=#BC6C25;strokeColor=#DDA15E;fontColor=#FEFAE0;" parent="WIyWlLk6GJQsqaUBKTNV-1" vertex="1">
          <mxGeometry x="307" y="-230" width="170" height="60" as="geometry" />
        </mxCell>
        <mxCell id="E1cWPZ0sb_W8jcI9UWx0-13" value="" style="rounded=0;html=1;jettySize=auto;orthogonalLoop=1;fontSize=11;endArrow=block;endFill=0;endSize=8;strokeWidth=1;shadow=0;labelBackgroundColor=none;edgeStyle=orthogonalEdgeStyle;entryX=0;entryY=0.5;entryDx=0;entryDy=0;strokeColor=#000000;fontColor=default;exitX=1;exitY=0.5;exitDx=0;exitDy=0;" parent="WIyWlLk6GJQsqaUBKTNV-1" edge="1">
          <mxGeometry relative="1" as="geometry">
            <mxPoint x="257" y="-200.5" as="sourcePoint" />
            <mxPoint x="307" y="-200.5" as="targetPoint" />
          </mxGeometry>
        </mxCell>
        <mxCell id="E1cWPZ0sb_W8jcI9UWx0-14" value="Отправка работнику статистики по запросу" style="rounded=1;whiteSpace=wrap;html=1;fontSize=12;glass=0;strokeWidth=1;shadow=0;labelBackgroundColor=none;fillColor=#BC6C25;strokeColor=#DDA15E;fontColor=#FEFAE0;" parent="WIyWlLk6GJQsqaUBKTNV-1" vertex="1">
          <mxGeometry x="-40.5" y="-110" width="135" height="40" as="geometry" />
        </mxCell>
        <mxCell id="E1cWPZ0sb_W8jcI9UWx0-15" value="" style="rounded=0;html=1;jettySize=auto;orthogonalLoop=1;fontSize=11;endArrow=block;endFill=0;endSize=8;strokeWidth=1;shadow=0;labelBackgroundColor=none;edgeStyle=orthogonalEdgeStyle;entryX=1;entryY=0.5;entryDx=0;entryDy=0;strokeColor=#000000;fontColor=default;exitX=0.5;exitY=1;exitDx=0;exitDy=0;" parent="WIyWlLk6GJQsqaUBKTNV-1" source="E1cWPZ0sb_W8jcI9UWx0-12" target="E1cWPZ0sb_W8jcI9UWx0-16" edge="1">
          <mxGeometry relative="1" as="geometry">
            <mxPoint x="267" y="-190.5" as="sourcePoint" />
            <mxPoint x="317" y="-190.5" as="targetPoint" />
            <Array as="points">
              <mxPoint x="392" y="-155" />
            </Array>
          </mxGeometry>
        </mxCell>
        <mxCell id="E1cWPZ0sb_W8jcI9UWx0-16" value="DB(PostgreSQL?)" style="text;html=1;strokeColor=none;fillColor=#423e47;align=center;verticalAlign=middle;whiteSpace=wrap;rounded=0;labelBackgroundColor=none;fontColor=#FEFAE0;" parent="WIyWlLk6GJQsqaUBKTNV-1" vertex="1">
          <mxGeometry x="-28" y="-170" width="110" height="30" as="geometry" />
        </mxCell>
        <mxCell id="E1cWPZ0sb_W8jcI9UWx0-17" value="" style="rounded=0;html=1;jettySize=auto;orthogonalLoop=1;fontSize=11;endArrow=block;endFill=0;endSize=8;strokeWidth=1;shadow=0;labelBackgroundColor=none;edgeStyle=orthogonalEdgeStyle;strokeColor=#000000;fontColor=default;exitX=1;exitY=0.5;exitDx=0;exitDy=0;entryX=0.5;entryY=0;entryDx=0;entryDy=0;" parent="WIyWlLk6GJQsqaUBKTNV-1" source="E1cWPZ0sb_W8jcI9UWx0-14" target="UN8iPi8M0M4lKCketsCk-23" edge="1">
          <mxGeometry relative="1" as="geometry">
            <mxPoint x="97" y="-190" as="sourcePoint" />
            <mxPoint x="147" y="-30" as="targetPoint" />
          </mxGeometry>
        </mxCell>
        <mxCell id="E1cWPZ0sb_W8jcI9UWx0-18" value="Лисы" style="text;html=1;strokeColor=none;fillColor=none;align=center;verticalAlign=middle;whiteSpace=wrap;rounded=0;labelBackgroundColor=none;fontColor=#FEFAE0;" parent="WIyWlLk6GJQsqaUBKTNV-1" vertex="1">
          <mxGeometry x="607" y="-280" width="60" height="30" as="geometry" />
        </mxCell>
        <mxCell id="E1cWPZ0sb_W8jcI9UWx0-19" value="" style="ellipse;whiteSpace=wrap;html=1;fillColor=#e3c800;fontColor=#000000;strokeColor=#B09500;labelBackgroundColor=none;" parent="WIyWlLk6GJQsqaUBKTNV-1" vertex="1">
          <mxGeometry x="592" y="-275" width="20" height="20" as="geometry" />
        </mxCell>
        <mxCell id="E1cWPZ0sb_W8jcI9UWx0-20" value="&lt;b&gt;&lt;font face=&quot;Times New Roman&quot;&gt;5&lt;/font&gt;&lt;/b&gt;" style="text;html=1;strokeColor=none;fillColor=none;align=center;verticalAlign=middle;whiteSpace=wrap;rounded=0;labelBackgroundColor=none;fontColor=#FEFAE0;" parent="WIyWlLk6GJQsqaUBKTNV-1" vertex="1">
          <mxGeometry x="597" y="-275" width="10" height="20" as="geometry" />
        </mxCell>
        <mxCell id="E1cWPZ0sb_W8jcI9UWx0-33" value="&lt;font style=&quot;font-size: 14px;&quot; color=&quot;#ffffff&quot;&gt;&lt;b&gt;Карта местности&lt;/b&gt;&lt;/font&gt;" style="text;html=1;strokeColor=none;fillColor=none;align=center;verticalAlign=middle;whiteSpace=wrap;rounded=0;" parent="WIyWlLk6GJQsqaUBKTNV-1" vertex="1">
          <mxGeometry x="507" y="-350" width="130" height="30" as="geometry" />
        </mxCell>
        <mxCell id="E1cWPZ0sb_W8jcI9UWx0-42" value="" style="rounded=1;whiteSpace=wrap;html=1;fontSize=12;glass=0;strokeWidth=1;shadow=0;labelBackgroundColor=none;fillColor=#c08e62;strokeColor=#d19a7a;fontColor=#FEFAE0;" parent="WIyWlLk6GJQsqaUBKTNV-1" vertex="1">
          <mxGeometry x="27" y="-530" width="340" height="105" as="geometry" />
        </mxCell>
        <mxCell id="E1cWPZ0sb_W8jcI9UWx0-43" value="GoogleDrive с&lt;br&gt;весами и тренировочными данными" style="rounded=1;whiteSpace=wrap;html=1;fontSize=12;glass=0;strokeWidth=1;shadow=0;labelBackgroundColor=none;fillColor=#BC6C25;strokeColor=#DDA15E;fontColor=#FEFAE0;" parent="WIyWlLk6GJQsqaUBKTNV-1" vertex="1">
          <mxGeometry x="125.75" y="-380" width="142.5" height="60" as="geometry" />
        </mxCell>
        <mxCell id="E1cWPZ0sb_W8jcI9UWx0-44" value="" style="rounded=0;html=1;jettySize=auto;orthogonalLoop=1;fontSize=11;endArrow=block;endFill=0;endSize=8;strokeWidth=1;shadow=0;labelBackgroundColor=none;edgeStyle=orthogonalEdgeStyle;entryX=0.5;entryY=0;entryDx=0;entryDy=0;strokeColor=#000000;fontColor=default;exitX=0.5;exitY=1;exitDx=0;exitDy=0;" parent="WIyWlLk6GJQsqaUBKTNV-1" source="E1cWPZ0sb_W8jcI9UWx0-43" target="E1cWPZ0sb_W8jcI9UWx0-9" edge="1">
          <mxGeometry relative="1" as="geometry">
            <mxPoint x="-258" y="-190.48000000000002" as="sourcePoint" />
            <mxPoint x="-28" y="-190" as="targetPoint" />
          </mxGeometry>
        </mxCell>
        <mxCell id="E1cWPZ0sb_W8jcI9UWx0-45" value="dvc" style="text;html=1;strokeColor=none;fillColor=#423e47;align=center;verticalAlign=middle;whiteSpace=wrap;rounded=0;labelBackgroundColor=none;fontColor=#FEFAE0;" parent="WIyWlLk6GJQsqaUBKTNV-1" vertex="1">
          <mxGeometry x="197" y="-310" width="60" height="30" as="geometry" />
        </mxCell>
        <mxCell id="E1cWPZ0sb_W8jcI9UWx0-46" value="dvc" style="text;html=1;strokeColor=none;fillColor=#423e47;align=center;verticalAlign=middle;whiteSpace=wrap;rounded=0;labelBackgroundColor=none;fontColor=#FEFAE0;" parent="WIyWlLk6GJQsqaUBKTNV-1" vertex="1">
          <mxGeometry x="207" y="-420" width="60" height="30" as="geometry" />
        </mxCell>
        <mxCell id="E1cWPZ0sb_W8jcI9UWx0-47" value="AutoML&lt;br&gt;для понимания бейзлайна" style="rounded=1;whiteSpace=wrap;html=1;fontSize=12;glass=0;strokeWidth=1;shadow=0;labelBackgroundColor=none;fillColor=#BC6C25;strokeColor=#DDA15E;fontColor=#FEFAE0;" parent="WIyWlLk6GJQsqaUBKTNV-1" vertex="1">
          <mxGeometry x="52" y="-507.5" width="142.5" height="60" as="geometry" />
        </mxCell>
        <mxCell id="E1cWPZ0sb_W8jcI9UWx0-48" value="Тюнинг своих ML решений" style="rounded=1;whiteSpace=wrap;html=1;fontSize=12;glass=0;strokeWidth=1;shadow=0;labelBackgroundColor=none;fillColor=#BC6C25;strokeColor=#DDA15E;fontColor=#FEFAE0;" parent="WIyWlLk6GJQsqaUBKTNV-1" vertex="1">
          <mxGeometry x="207" y="-507.5" width="142.5" height="60" as="geometry" />
        </mxCell>
        <mxCell id="E1cWPZ0sb_W8jcI9UWx0-49" value="" style="rounded=0;html=1;jettySize=auto;orthogonalLoop=1;fontSize=11;endArrow=block;endFill=0;endSize=8;strokeWidth=1;shadow=0;labelBackgroundColor=none;edgeStyle=orthogonalEdgeStyle;entryX=0.5;entryY=0;entryDx=0;entryDy=0;strokeColor=#000000;fontColor=default;exitX=0.5;exitY=1;exitDx=0;exitDy=0;" parent="WIyWlLk6GJQsqaUBKTNV-1" source="E1cWPZ0sb_W8jcI9UWx0-42" target="E1cWPZ0sb_W8jcI9UWx0-43" edge="1">
          <mxGeometry relative="1" as="geometry">
            <mxPoint x="207" y="-330" as="sourcePoint" />
            <mxPoint x="207" y="-210" as="targetPoint" />
          </mxGeometry>
        </mxCell>
        <mxCell id="E1cWPZ0sb_W8jcI9UWx0-50" value="Разметка изображений" style="rounded=1;whiteSpace=wrap;html=1;fontSize=12;glass=0;strokeWidth=1;shadow=0;labelBackgroundColor=none;fillColor=#BC6C25;strokeColor=#DDA15E;fontColor=#FEFAE0;" parent="WIyWlLk6GJQsqaUBKTNV-1" vertex="1">
          <mxGeometry x="312" y="-350" width="180" height="60" as="geometry" />
        </mxCell>
        <mxCell id="E1cWPZ0sb_W8jcI9UWx0-51" value="" style="rounded=0;html=1;jettySize=auto;orthogonalLoop=1;fontSize=11;endArrow=block;endFill=0;endSize=8;strokeWidth=1;shadow=0;labelBackgroundColor=none;edgeStyle=orthogonalEdgeStyle;entryX=1;entryY=0.5;entryDx=0;entryDy=0;strokeColor=#000000;fontColor=default;exitX=0;exitY=0.5;exitDx=0;exitDy=0;" parent="WIyWlLk6GJQsqaUBKTNV-1" source="E1cWPZ0sb_W8jcI9UWx0-50" target="E1cWPZ0sb_W8jcI9UWx0-43" edge="1">
          <mxGeometry relative="1" as="geometry">
            <mxPoint x="207" y="-330" as="sourcePoint" />
            <mxPoint x="207" y="-210" as="targetPoint" />
          </mxGeometry>
        </mxCell>
        <mxCell id="E1cWPZ0sb_W8jcI9UWx0-52" value="dvc" style="text;html=1;strokeColor=none;fillColor=#423e47;align=center;verticalAlign=middle;whiteSpace=wrap;rounded=0;labelBackgroundColor=none;fontColor=#FEFAE0;" parent="WIyWlLk6GJQsqaUBKTNV-1" vertex="1">
          <mxGeometry x="277" y="-390" width="60" height="30" as="geometry" />
        </mxCell>
        <mxCell id="7nYVsMaBp20H8T5FVg42-1" value="" style="rounded=0;html=1;jettySize=auto;orthogonalLoop=1;fontSize=11;endArrow=block;endFill=0;endSize=8;strokeWidth=1;shadow=0;labelBackgroundColor=none;edgeStyle=orthogonalEdgeStyle;entryX=0;entryY=0.5;entryDx=0;entryDy=0;strokeColor=#000000;fontColor=default;" edge="1" parent="WIyWlLk6GJQsqaUBKTNV-1">
          <mxGeometry relative="1" as="geometry">
            <mxPoint x="507" y="-10.620000000000005" as="targetPoint" />
            <mxPoint x="427" y="-10.620000000000005" as="sourcePoint" />
          </mxGeometry>
        </mxCell>
        <mxCell id="7nYVsMaBp20H8T5FVg42-7" value="" style="rounded=0;html=1;jettySize=auto;orthogonalLoop=1;fontSize=11;endArrow=block;endFill=0;endSize=8;strokeWidth=1;shadow=0;labelBackgroundColor=none;edgeStyle=orthogonalEdgeStyle;entryX=0.5;entryY=0;entryDx=0;entryDy=0;strokeColor=#000000;fontColor=default;" edge="1" parent="WIyWlLk6GJQsqaUBKTNV-1" target="UN8iPi8M0M4lKCketsCk-2">
          <mxGeometry relative="1" as="geometry">
            <mxPoint x="-173" y="-280" as="sourcePoint" />
            <mxPoint x="-123" y="-260" as="targetPoint" />
          </mxGeometry>
        </mxCell>
        <mxCell id="7nYVsMaBp20H8T5FVg42-8" value="" style="rounded=0;html=1;jettySize=auto;orthogonalLoop=1;fontSize=11;endArrow=block;endFill=0;endSize=8;strokeWidth=1;shadow=0;labelBackgroundColor=none;edgeStyle=orthogonalEdgeStyle;entryX=0;entryY=0.5;entryDx=0;entryDy=0;strokeColor=#000000;fontColor=default;exitX=1;exitY=0.5;exitDx=0;exitDy=0;" edge="1" parent="WIyWlLk6GJQsqaUBKTNV-1" source="UN8iPi8M0M4lKCketsCk-2" target="E1cWPZ0sb_W8jcI9UWx0-8">
          <mxGeometry relative="1" as="geometry">
            <mxPoint x="-163" y="-270" as="sourcePoint" />
            <mxPoint x="-173" y="-210" as="targetPoint" />
          </mxGeometry>
        </mxCell>
        <mxCell id="7nYVsMaBp20H8T5FVg42-9" value="" style="rounded=0;html=1;jettySize=auto;orthogonalLoop=1;fontSize=11;endArrow=block;endFill=0;endSize=8;strokeWidth=1;shadow=0;labelBackgroundColor=none;edgeStyle=orthogonalEdgeStyle;entryX=0.5;entryY=0;entryDx=0;entryDy=0;strokeColor=#000000;fontColor=default;exitX=0.5;exitY=1;exitDx=0;exitDy=0;" edge="1" parent="WIyWlLk6GJQsqaUBKTNV-1" source="E1cWPZ0sb_W8jcI9UWx0-16" target="E1cWPZ0sb_W8jcI9UWx0-14">
          <mxGeometry relative="1" as="geometry">
            <mxPoint x="-163" y="-270" as="sourcePoint" />
            <mxPoint x="-173" y="-210" as="targetPoint" />
          </mxGeometry>
        </mxCell>
      </root>
    </mxGraphModel>
  </diagram>
</mxfile>
